<svg width="232" height="41" viewBox="0 0 232 41" fill="none" xmlns="http://www.w3.org/2000/svg">
<g id="logo_new">
<g id="Group">
<path id="Vector" d="M26.8299 0L20.5499 11.0154L14.2698 0L6.28003 4.65909L11.2449 13.345C12.0669 14.776 13.5794 15.6745 15.2233 15.6745H25.8435C27.4875 15.6745 29 14.776 29.822 13.345L34.8197 4.65909L26.8299 0Z" fill="#4FA2F0"/>
<path id="Vector_2" d="M41.0997 15.6745H31.17C29.526 15.6745 28.0136 16.573 27.1916 18.004L21.865 27.3222C21.043 28.7532 21.043 30.5503 21.865 31.9813L26.8299 40.6672L34.7868 36.0081L28.5396 24.9927H41.0997V15.6745Z" fill="#004A90"/>
<path id="Vector_3" d="M19.2347 27.3222L13.9082 18.004C13.0862 16.573 11.5737 15.6745 9.92971 15.6745H0V24.9927H12.5601L6.28005 36.0081L14.237 40.6672L19.2018 31.9813C20.0567 30.5503 20.0567 28.7865 19.2347 27.3222Z" fill="#D43333"/>
</g>
<g id="Group_2">
<g id="Group_3">
<path id="Vector_4" d="M50.3062 2.76215H61.6497V5.99023H53.9229V9.8839C54.5148 9.78406 55.4354 9.65095 56.2903 9.65095C60.2359 9.65095 62.9978 11.1152 62.9978 15.4083C62.9978 19.5682 60.1701 21.6647 55.6656 21.6647C54.4819 21.6647 51.8515 21.5649 50.339 21.1988V2.76215H50.3062ZM59.1837 15.6745C59.1837 13.112 57.5397 12.6794 55.5669 12.6794C55.0737 12.6794 54.186 12.7792 53.89 12.879V18.5365C54.2846 18.6363 55.1724 18.6696 55.8957 18.6696C57.737 18.6363 59.1837 17.7711 59.1837 15.6745Z" fill="#004A90"/>
<path id="Vector_5" d="M69.8038 15.5746L70.2641 17.6379H70.4285L70.7573 15.5413L72.763 8.08679H76.2812L72.2698 20.1006C70.9546 24.0608 69.9353 26.8563 67.4694 26.8563C66.6145 26.8563 65.8254 26.6899 65.2993 26.3904L65.924 23.6282C66.187 23.728 66.4501 23.7946 66.7131 23.7946C67.5351 23.7946 68.3571 23.1956 68.7517 21.3985L63.2607 8.08679H67.3707L69.8038 15.5746Z" fill="#004A90"/>
<path id="Vector_6" d="M89.7948 24.4269H87.296L86.9014 21.3985H78.0567L77.6622 24.4269H75.1633V18.3368H76.7087C77.2676 17.5714 78.6815 14.7094 78.7143 8.08679H87.8549V18.3368H89.762V24.4269H89.7948ZM84.4354 18.5032V11.0154H81.6735C81.542 13.6111 80.9502 16.9391 80.1282 18.5032H84.4354Z" fill="#004A90"/>
<path id="Vector_7" d="M96.2392 15.5746L96.6995 17.6379H96.8639L97.1927 15.5413L99.1984 8.08679H102.717L98.7052 20.1006C97.39 24.0608 96.3707 26.8563 93.9047 26.8563C93.0499 26.8563 92.2608 26.6899 91.7347 26.3904L92.3923 23.6282C92.6553 23.728 92.9183 23.7946 93.1814 23.7946C94.0034 23.7946 94.8254 23.1956 95.2199 21.3985L89.729 8.08679H93.839L96.2392 15.5746Z" fill="#004A90"/>
<path id="Vector_8" d="M122.543 24.8595H120.077L119.683 21.3985H103.834V8.08679H107.254V18.3368H110.542V8.08679H113.961V18.3368H117.249V8.08679H120.669V18.3368H122.576V24.8595H122.543Z" fill="#004A90"/>
<path id="Vector_9" d="M134.709 20.2337C133.656 21.099 131.717 21.7645 129.678 21.7645C125.437 21.7645 123.562 19.1022 123.562 14.7426C123.562 10.0835 125.897 7.7207 129.875 7.7207C132.539 7.7207 135.136 8.98531 135.136 13.1119C135.136 13.8441 135.07 14.7093 134.873 15.6412H126.982C127.081 17.8709 128.034 19.0356 130.336 19.0356C131.749 19.0356 132.999 18.4699 133.558 18.0373L134.709 20.2337ZM127.048 13.4447H131.947C131.947 13.3116 131.98 13.1452 131.98 13.0121C131.98 11.3814 131.256 10.4496 129.81 10.4496C128.034 10.4829 127.212 11.6477 127.048 13.4447Z" fill="#004A90"/>
<path id="Vector_10" d="M147.729 20.2337C146.677 21.099 144.737 21.7645 142.698 21.7645C138.457 21.7645 136.583 19.1022 136.583 14.7426C136.583 10.0835 138.917 7.7207 142.896 7.7207C145.559 7.7207 148.156 8.98531 148.156 13.1119C148.156 13.8441 148.091 14.7093 147.893 15.6412H140.002C140.101 17.8709 141.054 19.0356 143.356 19.0356C144.77 19.0356 146.019 18.4699 146.578 18.0373L147.729 20.2337ZM140.068 13.4447H144.967C144.967 13.3116 145 13.1452 145 13.0121C145 11.3814 144.277 10.4496 142.83 10.4496C141.054 10.4829 140.232 11.6477 140.068 13.4447Z" fill="#004A90"/>
<path id="Vector_11" d="M156.903 2.92856C158.382 2.62904 160.256 2.46265 161.966 2.46265C165.649 2.46265 169.693 3.42774 169.693 8.65258C169.693 13.3117 166.208 15.0755 162.558 15.0755C162.229 15.0755 160.848 15.0422 160.486 14.9756V21.3985H156.87V2.92856H156.903ZM160.486 5.75729V11.8141C160.782 11.8807 161.736 11.9139 162.032 11.9139C163.939 11.9139 165.912 11.3482 165.912 8.6193C165.912 6.28976 164.07 5.62417 162.262 5.62417C161.571 5.62417 160.881 5.69073 160.486 5.75729Z" fill="#004A90"/>
<path id="Vector_12" d="M176.269 7.7207C180.444 7.7207 182.45 10.5494 182.45 14.7426C182.45 19.202 180.181 21.7645 176.269 21.7645C172.093 21.7645 170.054 18.9358 170.054 14.7426C170.054 10.2499 172.356 7.7207 176.269 7.7207ZM176.269 18.836C178.044 18.836 178.932 17.5714 178.932 14.7426C178.932 12.28 178.209 10.6493 176.269 10.6493C174.592 10.6493 173.573 11.8473 173.573 14.7426C173.605 17.0722 174.395 18.836 176.269 18.836Z" fill="#004A90"/>
<path id="Vector_13" d="M193.925 20.5665C192.873 21.3319 191.295 21.7645 189.717 21.7645C185.508 21.7645 183.995 18.9358 183.995 14.7426C183.995 10.2832 186.067 7.7207 189.848 7.7207C191.755 7.7207 192.807 8.05349 193.761 8.58596L192.939 11.4147C192.117 11.0153 191.393 10.8157 190.374 10.8157C188.5 10.8157 187.481 12.0137 187.481 14.7759C187.481 17.0056 188.434 18.7361 190.571 18.7361C191.722 18.7361 192.479 18.4033 193.136 17.9707L193.925 20.5665Z" fill="#004A90"/>
<path id="Vector_14" d="M204.644 20.5665C203.592 21.3319 202.014 21.7645 200.435 21.7645C196.227 21.7645 194.714 18.9358 194.714 14.7426C194.714 10.2832 196.786 7.7207 200.567 7.7207C202.474 7.7207 203.526 8.05349 204.48 8.58596L203.658 11.4147C202.836 11.0153 202.112 10.8157 201.093 10.8157C199.219 10.8157 198.2 12.0137 198.2 14.7759C198.2 17.0056 199.153 18.7361 201.29 18.7361C202.441 18.7361 203.197 18.4033 203.855 17.9707L204.644 20.5665Z" fill="#004A90"/>
<path id="Vector_15" d="M214.442 15.3084L214.574 13.4115H214.508L213.39 15.3417L208.721 21.3652H206.551V8.05353H209.971V14.3766L209.806 16.1737H209.905L210.99 14.2767L215.692 8.08681H217.862V21.3985H214.442V15.3084Z" fill="#004A90"/>
<path id="Vector_16" d="M228.581 15.3084L228.712 13.4115H228.646L227.528 15.3417L222.86 21.3652H220.689V8.05353H224.109V14.3766L223.945 16.1737H224.043L225.128 14.2767L229.83 8.08681H232V21.3985H228.581V15.3084Z" fill="#004A90"/>
</g>
<g id="Group_4">
<path id="Vector_17" d="M56.1259 33.612H52.3447V38.0049H50.3062V27.5219H52.3447V31.7817H56.1259V27.5219H58.1644V38.0049H56.1259V33.612Z" fill="#4FA2F0"/>
<path id="Vector_18" d="M59.6769 30.9497C60.466 30.5836 61.6168 30.3506 62.7676 30.3506C64.839 30.3506 65.4308 31.3823 65.4308 32.9797C65.4308 33.9781 65.3322 35.0097 65.3322 35.9748C65.3322 36.707 65.398 37.4058 65.5952 38.0382H64.017L63.7211 37.0065H63.6553C63.2608 37.6055 62.5703 38.138 61.4853 38.138C60.1372 38.138 59.2166 37.2394 59.2166 35.9416C59.2166 34.2443 60.6633 33.5455 62.9648 33.5455C63.1292 33.5455 63.3265 33.5455 63.5238 33.5455C63.5567 33.3458 63.5567 33.1794 63.5567 33.0463C63.5567 32.3141 63.2608 31.9813 62.4059 31.9813C61.6497 31.9813 60.6633 32.1477 60.1372 32.414L59.6769 30.9497ZM63.5238 35.7086V34.7435C63.3265 34.7435 63.1292 34.7102 62.9648 34.7102C61.9785 34.7102 61.1893 34.9765 61.1893 35.642C61.1893 36.2078 61.551 36.5406 62.11 36.5406C62.8662 36.5073 63.3265 36.108 63.5238 35.7086Z" fill="#4FA2F0"/>
<path id="Vector_19" d="M74.1111 39.7021H72.6973L72.4671 38.0049H66.8776V30.517H68.7846V36.2743H71.0862V30.517H73.0261V36.2743H74.1111V39.7021Z" fill="#4FA2F0"/>
<path id="Vector_20" d="M79.4377 34.5771L79.5035 33.5122H79.4706L78.8459 34.6104L76.2155 38.0049H74.9661V30.517H76.8731V34.0779L76.7745 35.1096H76.8402L77.432 34.0446L80.0953 30.517H81.3119V38.0049H79.4048V34.5771H79.4377Z" fill="#4FA2F0"/>
<path id="Vector_21" d="M85.9807 30.3173C88.3481 30.3173 89.466 31.9147 89.466 34.2776C89.466 36.8068 88.1837 38.2378 85.9807 38.2378C83.6134 38.2378 82.4955 36.6404 82.4955 34.2776C82.4955 31.7483 83.7778 30.3173 85.9807 30.3173ZM85.9807 36.5738C86.9671 36.5738 87.4603 35.8417 87.4603 34.2776C87.4603 32.9131 87.0329 31.9813 85.9807 31.9813C85.0272 31.9813 84.4683 32.6469 84.4683 34.2776C84.4683 35.5754 84.9286 36.5738 85.9807 36.5738Z" fill="#4FA2F0"/>
<path id="Vector_22" d="M94.957 35.043H92.5568V38.0049H90.6498V30.517H92.5568V33.3458H94.957V30.517H96.8641V38.0049H94.957V35.043Z" fill="#4FA2F0"/>
<path id="Vector_23" d="M98.3436 30.9497C99.1327 30.5836 100.284 30.3506 101.434 30.3506C103.506 30.3506 104.098 31.3823 104.098 32.9797C104.098 33.9781 103.999 35.0097 103.999 35.9748C103.999 36.707 104.065 37.4058 104.262 38.0382H102.684L102.388 37.0065H102.322C101.928 37.6055 101.237 38.138 100.152 38.138C98.8039 38.138 97.8833 37.2394 97.8833 35.9416C97.8833 34.2443 99.33 33.5455 101.632 33.5455C101.796 33.5455 101.993 33.5455 102.191 33.5455C102.223 33.3458 102.223 33.1794 102.223 33.0463C102.223 32.3141 101.928 31.9813 101.073 31.9813C100.316 31.9813 99.33 32.1477 98.8039 32.414L98.3436 30.9497ZM102.223 35.7086V34.7435C102.026 34.7435 101.829 34.7102 101.664 34.7102C100.678 34.7102 99.889 34.9765 99.889 35.642C99.889 36.2078 100.251 36.5406 100.81 36.5406C101.566 36.5073 101.993 36.108 102.223 35.7086Z" fill="#4FA2F0"/>
<path id="Vector_24" d="M109.588 32.2476H108.109C107.879 35.0763 107.583 38.1047 105.676 38.1047C105.084 38.1047 104.689 38.0381 104.459 37.8717L104.689 36.2411C104.854 36.3076 104.985 36.3409 105.15 36.3409C105.939 36.3409 106.3 35.1428 106.432 30.517H111.496V38.0049H109.556V32.2476H109.588Z" fill="#4FA2F0"/>
<path id="Vector_25" d="M114.915 33.1794C115.375 33.1128 115.901 33.0795 116.296 33.0795C118.335 33.0795 119.091 34.0779 119.091 35.4091C119.091 37.2062 118.137 38.1047 115.573 38.1047C114.455 38.1047 113.666 38.0714 112.975 38.0049V30.517H114.882V33.1794H114.915ZM114.915 36.3742C115.211 36.4407 115.474 36.474 115.77 36.474C116.691 36.474 117.118 36.1745 117.118 35.4424C117.118 34.8101 116.691 34.4773 115.803 34.4773C115.474 34.4773 115.211 34.5105 114.915 34.5771V36.3742Z" fill="#4FA2F0"/>
<path id="Vector_26" d="M124.417 35.043H121.984V38.0049H120.044V30.517H121.984V33.3458H124.384V30.517H126.291V38.0049H124.384V35.043H124.417Z" fill="#4FA2F0"/>
<path id="Vector_27" d="M129.744 33.1794C130.204 33.1128 130.73 33.0795 131.125 33.0795C133.13 33.0795 133.788 34.0779 133.788 35.4091C133.788 37.2062 132.9 38.1047 130.434 38.1047C129.316 38.1047 128.527 38.0714 127.837 38.0049V30.517H129.777V33.1794H129.744ZM129.744 36.3742C130.04 36.4407 130.303 36.474 130.599 36.474C131.486 36.474 131.782 36.1745 131.782 35.4424C131.782 34.8101 131.453 34.4773 130.631 34.4773C130.303 34.4773 130.04 34.5105 129.744 34.5771V36.3742ZM134.61 30.517H136.517V38.0049H134.61V30.517Z" fill="#4FA2F0"/>
<path id="Vector_28" d="M143.981 37.3393C143.389 37.8052 142.304 38.2046 141.153 38.2046C138.786 38.2046 137.701 36.707 137.701 34.2443C137.701 31.6153 139.016 30.2841 141.252 30.2841C142.731 30.2841 144.211 30.983 144.211 33.3125C144.211 33.7452 144.178 34.2111 144.046 34.7435H139.608C139.673 36.0081 140.2 36.6405 141.515 36.6405C142.304 36.6405 142.994 36.3409 143.323 36.0747L143.981 37.3393ZM139.673 33.5455H142.435C142.435 33.4789 142.435 33.3791 142.435 33.3125C142.435 32.414 142.008 31.8815 141.219 31.8815C140.232 31.8482 139.772 32.5138 139.673 33.5455Z" fill="#4FA2F0"/>
<path id="Vector_29" d="M153.22 32.2476H150.885V38.0049H148.946V30.517H155.127V38.0049H153.22V32.2476Z" fill="#4FA2F0"/>
<path id="Vector_30" d="M156.672 30.517H158.086L158.316 31.4155H158.382C158.908 30.6834 159.566 30.3173 160.585 30.3173C162.426 30.3173 163.38 31.4488 163.38 34.0779C163.38 36.6404 162.163 38.2378 159.993 38.2378C159.401 38.2378 159.04 38.1379 158.645 37.9383V40.9999H156.705V30.517H156.672ZM158.579 33.0795V36.2077C158.875 36.4407 159.138 36.5738 159.664 36.5738C160.749 36.5738 161.308 35.8417 161.308 34.0113C161.308 32.6801 160.881 31.948 159.927 31.948C159.204 31.948 158.81 32.3141 158.579 33.0795Z" fill="#4FA2F0"/>
<path id="Vector_31" d="M167.621 30.3173C169.989 30.3173 171.107 31.9147 171.107 34.2776C171.107 36.8068 169.824 38.2378 167.621 38.2378C165.254 38.2378 164.136 36.6404 164.136 34.2776C164.103 31.7483 165.386 30.3173 167.621 30.3173ZM167.621 36.5738C168.608 36.5738 169.101 35.8417 169.101 34.2776C169.101 32.9131 168.674 31.9813 167.621 31.9813C166.668 31.9813 166.109 32.6469 166.109 34.2776C166.109 35.5754 166.536 36.5738 167.621 36.5738Z" fill="#4FA2F0"/>
<path id="Vector_32" d="M178.143 37.3393C177.551 37.8052 176.466 38.2046 175.315 38.2046C172.948 38.2046 171.863 36.707 171.863 34.2443C171.863 31.6153 173.178 30.2841 175.414 30.2841C176.894 30.2841 178.373 30.983 178.373 33.3125C178.373 33.7452 178.34 34.2111 178.209 34.7435H173.77C173.836 36.0081 174.362 36.6405 175.677 36.6405C176.466 36.6405 177.157 36.3409 177.485 36.0747L178.143 37.3393ZM173.836 33.5455H176.598C176.598 33.4789 176.598 33.3791 176.598 33.3125C176.598 32.414 176.17 31.8815 175.381 31.8815C174.395 31.8482 173.934 32.5138 173.836 33.5455Z" fill="#4FA2F0"/>
<path id="Vector_33" d="M182.023 34.9099H181.497V38.0049H179.557V30.517H181.497V33.7118L181.957 33.5122L183.7 30.517H185.771L183.996 33.3458L183.239 33.9115L184.061 34.5105L186.067 38.0049H183.864L182.023 34.9099Z" fill="#4FA2F0"/>
<path id="Vector_34" d="M191.952 32.2476H189.881V38.0049H187.908V32.2476H185.837V30.517H191.985V32.2476H191.952Z" fill="#4FA2F0"/>
<path id="Vector_35" d="M194.55 33.1794C195.01 33.1128 195.536 33.0795 195.931 33.0795C197.937 33.0795 198.594 34.0779 198.594 35.4091C198.594 37.2062 197.706 38.1047 195.24 38.1047C194.123 38.1047 193.333 38.0714 192.643 38.0049V30.517H194.583V33.1794H194.55ZM194.55 36.3742C194.846 36.4407 195.109 36.474 195.405 36.474C196.293 36.474 196.589 36.1745 196.589 35.4424C196.589 34.8101 196.26 34.4773 195.438 34.4773C195.109 34.4773 194.846 34.5105 194.55 34.5771V36.3742ZM199.416 30.517H201.323V38.0049H199.416V30.517Z" fill="#4FA2F0"/>
</g>
</g>
</g>
</svg>
