<?xml version="1.0" encoding="UTF-8"?>
<svg width="1286px" height="351px" viewBox="0 0 1286 351" version="1.1" xmlns="http://www.w3.org/2000/svg" xmlns:xlink="http://www.w3.org/1999/xlink">
    <!-- Generator: Sketch 55.2 (78181) - https://sketchapp.com -->
    <title>1</title>
    <desc>Created with Sketch.</desc>
    <g id="Page-1" stroke="none" stroke-width="1" fill="none" fill-rule="evenodd">
        <g id="Artboard" transform="translate(-322.000000, -765.000000)">
            <g id="Group-22" transform="translate(106.000000, 413.000000)">
                <g id="1" transform="translate(216.000000, 352.000000)">
                    <path d="M408.1675,133.21 C432.29544,133.21 451.855,152.853507 451.855,177.085 C451.855,201.316493 432.29544,220.96 408.1675,220.96 C384.03956,220.96 364.48,201.316493 364.48,177.085 C364.48,152.853507 384.03956,133.21 408.1675,133.21 Z" id="Shape" fill="#FFDC09"></path>
                    <polygon id="Shape" fill="#FFFFFF" points="234 117 350.137072 117 467 234 234 234"></polygon>
                    <polygon id="Shape" fill="#00C9F2" transform="translate(292.250000, 175.500000) scale(-1, 1) translate(-292.250000, -175.500000) " points="234 117 350.5 234 234 234"></polygon>
                    <path d="M291.6675,150.76 L292.25,150.76 C306.726764,150.76 318.4625,162.546104 318.4625,177.085 C318.4625,191.623896 306.726764,203.41 292.25,203.41 L291.6675,203.41 C277.190736,203.41 265.455,191.623896 265.455,177.085 C265.455,162.546104 277.190736,150.76 291.6675,150.76 Z" id="Shape" fill="#26468B"></path>
                    <g id="Module" transform="translate(467.000000, 118.000000)">
                        <rect id="Shape" fill="#00C9F2" x="0" y="0" width="117" height="233"></rect>
                        <rect id="Shape" fill="#3C61AF" x="58.5" y="58.25" width="58.5" height="58.39599"></rect>
                        <rect id="Shape" fill="#26468B" x="0" y="116.5" width="58.5" height="58.39599"></rect>
                    </g>
                    <g id="Module" transform="translate(642.500000, 176.500000) rotate(-90.000000) translate(-642.500000, -176.500000) translate(584.000000, 118.000000)">
                        <rect id="Shape" fill="#3C61AF" x="0" y="0" width="117" height="117"></rect>
                        <rect id="Shape" fill="#FF6242" x="0" y="0" width="58.5" height="117"></rect>
                    </g>
                    <g id="Module" transform="translate(701.000000, 1.000000)">
                        <rect id="Shape" fill="#FFDC09" x="0" y="0" width="117" height="117"></rect>
                        <polygon id="Shape" fill="#E4E7EB" transform="translate(58.500000, 58.500000) scale(-1, 1) translate(-58.500000, -58.500000) " points="0 0 117 117 0 117"></polygon>
                    </g>
                    <g id="Module" transform="translate(701.000000, 234.000000)">
                        <rect id="Shape" fill="#FFFFFF" x="0" y="0" width="117" height="117"></rect>
                        <path d="M29.25,58.5 C45.4043289,58.5 58.5,71.5956711 58.5,87.75 C58.5,103.904329 45.4043289,117 29.25,117 C13.0956711,117 0,103.904329 0,87.75 C0,71.5956711 13.0956711,58.5 29.25,58.5 Z" id="Shape" fill="#FF6242"></path>
                        <rect id="Shape" fill="#00C9F2" x="58.5" y="0" width="58.5" height="58.5"></rect>
                    </g>
                    <g id="Module" transform="translate(1227.500000, 292.500000) rotate(-270.000000) translate(-1227.500000, -292.500000) translate(1169.000000, 234.000000)">
                        <polygon id="Shape" fill="#3C61AF" points="0 -1.01481323e-16 117 0 117 117 0 117"></polygon>
                        <polygon id="Shape" fill="#FF6242" transform="translate(58.500000, 58.500000) scale(-1, -1) translate(-58.500000, -58.500000) " points="0 0 117 117 0 117"></polygon>
                        <path d="M59.67,14.625 C83.9014934,14.625 103.545,34.2685066 103.545,58.5 C103.545,82.7314934 83.9014934,102.375 59.67,102.375 C35.4385066,102.375 15.795,82.7314934 15.795,58.5 C15.795,34.2685066 35.4385066,14.625 59.67,14.625 Z" id="Shape" fill="#FFFFFF"></path>
                    </g>
                    <g id="Module" transform="translate(818.000000, 118.000000)" fill="#3C61AF">
                        <polygon id="Shape" transform="translate(58.500000, 58.500000) scale(-1, -1) translate(-58.500000, -58.500000) " points="0 0 117 117 0 117"></polygon>
                    </g>
                    <g id="Module" transform="translate(1110.500000, 175.000000) rotate(-180.000000) translate(-1110.500000, -175.000000) translate(1052.000000, 116.000000)">
                        <rect id="Shape" fill="#3C61AF" x="0" y="0" width="117" height="117"></rect>
                        <g id="Shape" transform="translate(0.000000, 37.440000)">
                            <polygon id="Triangle" fill="#FFFFFF" points="58.2075 0.393841742 98.28 79.56 18.135 79.56"></polygon>
                            <polygon id="Triangle" fill="#FF6242" points="29.25 27.1706306 58.5 79.56 0 79.56"></polygon>
                            <polygon id="Triangle" fill="#FF6242" points="87.75 27.1706306 117 79.56 58.5 79.56"></polygon>
                        </g>
                    </g>
                    <g id="Module" transform="translate(0.000000, 117.000000)">
                        <path d="M58.5,0 C90.8086579,0 117,26.1913421 117,58.5 C117,90.8086579 90.8086579,117 58.5,117 C26.1913421,117 0,90.8086579 0,58.5 C0,26.1913421 26.1913421,0 58.5,0 Z" id="Shape" fill="#E4E7EB"></path>
                        <rect id="Shape" fill="#3C61AF" x="58.5" y="58.5" width="58.5" height="58.5"></rect>
                    </g>
                    <g id="Module" transform="translate(935.000000, 0.000000)" fill="#00C9F2">
                        <polygon id="Shape" transform="translate(29.250000, 29.250000) scale(-1, -1) translate(-29.250000, -29.250000) " points="0 0 58.5 58.5 0 58.5"></polygon>
                        <polygon id="Shape" transform="translate(87.750000, 87.750000) scale(-1, -1) rotate(-180.000000) translate(-87.750000, -87.750000) " points="58.5 58.5 117 117 58.5 117"></polygon>
                        <polygon id="Shape" transform="translate(29.250000, 87.750000) scale(-1, -1) rotate(-90.000000) translate(-29.250000, -87.750000) " points="1.69900205e-12 58.5 58.5 117 1.69900205e-12 117"></polygon>
                        <polygon id="Shape" transform="translate(87.750000, 29.250000) scale(-1, -1) rotate(-270.000000) translate(-87.750000, -29.250000) " points="58.5 3.09063886e-12 117 58.5 58.5 58.5"></polygon>
                    </g>
                    <g id="Module" transform="translate(350.000000, 1.000000)" fill="#FFDC09">
                        <polygon id="Shape" transform="translate(29.250000, 29.250000) scale(-1, -1) translate(-29.250000, -29.250000) " points="0 0 58.5 58.5 0 58.5"></polygon>
                        <polygon id="Shape" transform="translate(29.250000, 29.250000) scale(-1, -1) rotate(-90.000000) translate(-29.250000, -29.250000) " points="4.45686123e-12 -1.21577748e-12 58.5 58.5 4.45686123e-12 58.5"></polygon>
                        <polygon id="Shape" transform="translate(87.750000, 87.750000) scale(-1, -1) rotate(-90.000000) translate(-87.750000, -87.750000) " points="58.5 58.5 117 117 58.5 117"></polygon>
                        <polygon id="Shape" transform="translate(87.750000, 87.750000) scale(-1, -1) translate(-87.750000, -87.750000) " points="58.5 58.5 117 117 58.5 117"></polygon>
                    </g>
                </g>
            </g>
        </g>
    </g>
</svg>